<?xml version="1.0" encoding="UTF-8" standalone="no"?>
<!-- Created with Inkscape (http://www.inkscape.org/) -->

<svg
   version="1.1"
   id="svg2"
   width="1056"
   height="816"
   viewBox="0 0 1056 816"
   sodipodi:docname="wings_of_liberty.ai"
   xmlns:inkscape="http://www.inkscape.org/namespaces/inkscape"
   xmlns:sodipodi="http://sodipodi.sourceforge.net/DTD/sodipodi-0.dtd"
   xmlns="http://www.w3.org/2000/svg"
   xmlns:svg="http://www.w3.org/2000/svg">
  <defs
     id="defs6" />
  <sodipodi:namedview
     id="namedview4"
     pagecolor="#ffffff"
     bordercolor="#000000"
     borderopacity="0.25"
     inkscape:showpageshadow="2"
     inkscape:pageopacity="0.0"
     inkscape:pagecheckerboard="0"
     inkscape:deskcolor="#d1d1d1" />
  <g
     id="g8"
     inkscape:groupmode="layer"
     inkscape:label="wings_of_liberty"
     transform="matrix(1.3333333,0,0,-1.3333333,0,816)">
    <g
       id="g10"
       transform="translate(199.7441,558.3232)">
      <path
         d="M 0,0 H 406.351 L 416.675,-419.251 198.663,-536.644 -24.511,-416.675 Z"
         style="fill:#c8c7c7;fill-opacity:1;fill-rule:nonzero;stroke:none"
         id="path12" />
    </g>
    <g
       id="g14"
       transform="translate(199.7441,558.3232)">
      <path
         d="M 0,0 H 406.351 L 416.675,-419.251 198.663,-536.644 -24.511,-416.675 Z"
         style="fill:none;stroke:#8d8d8d;stroke-width:0.75;stroke-linecap:butt;stroke-linejoin:miter;stroke-miterlimit:10;stroke-dasharray:none;stroke-opacity:1"
         id="path16" />
    </g>
    <g
       id="g18"
       transform="translate(216.5117,541.5557)">
      <path
         d="m 0,0 h 175.443 l -2.581,-174.152 -179.31,1.29 z"
         style="fill:#e9e9e9;fill-opacity:1;fill-rule:nonzero;stroke:none"
         id="path20" />
    </g>
    <g
       id="g22"
       transform="translate(216.5117,541.5557)">
      <path
         d="m 0,0 h 175.443 l -2.581,-174.152 -179.31,1.29 z"
         style="fill:none;stroke:#8d8d8d;stroke-width:0.75;stroke-linecap:butt;stroke-linejoin:miter;stroke-miterlimit:10;stroke-dasharray:none;stroke-opacity:1"
         id="path24" />
    </g>
    <g
       id="g26"
       transform="translate(412.5937,541.5557)">
      <path
         d="m 0,0 174.152,1.291 5.162,-176.734 -181.89,2.581 z"
         style="fill:#e9e9e9;fill-opacity:1;fill-rule:nonzero;stroke:none"
         id="path28" />
    </g>
    <g
       id="g30"
       transform="translate(412.5937,541.5557)">
      <path
         d="m 0,0 174.152,1.291 5.162,-176.734 -181.89,2.581 z"
         style="fill:none;stroke:#8d8d8d;stroke-width:0.75;stroke-linecap:butt;stroke-linejoin:miter;stroke-miterlimit:10;stroke-dasharray:none;stroke-opacity:1"
         id="path32" />
    </g>
    <g
       id="g34"
       transform="translate(598.3564,145.5195)">
      <path
         d="M 0,0 -190.92,-98.038 V 201.245 L -3.872,199.954 Z"
         style="fill:#e9e9e9;fill-opacity:1;fill-rule:nonzero;stroke:none"
         id="path36" />
    </g>
    <g
       id="g38"
       transform="translate(598.3564,145.5195)">
      <path
         d="M 0,0 -190.92,-98.038 V 201.245 L -3.872,199.954 Z"
         style="fill:none;stroke:#8d8d8d;stroke-width:0.75;stroke-linecap:butt;stroke-linejoin:miter;stroke-miterlimit:10;stroke-dasharray:none;stroke-opacity:1"
         id="path40" />
    </g>
    <g
       id="g42"
       transform="translate(386.7969,47.4814)">
      <path
         d="m 0,0 -187.053,98.038 2.581,200.597 185.758,1.938 z"
         style="fill:#e9e9e9;fill-opacity:1;fill-rule:nonzero;stroke:none"
         id="path44" />
    </g>
    <g
       id="g46"
       transform="translate(386.7969,47.4814)">
      <path
         d="m 0,0 -187.053,98.038 2.581,200.597 185.758,1.938 z"
         style="fill:none;stroke:#8d8d8d;stroke-width:0.75;stroke-linecap:butt;stroke-linejoin:miter;stroke-miterlimit:10;stroke-dasharray:none;stroke-opacity:1"
         id="path48" />
    </g>
    <g
       id="g50"
       transform="translate(235.8652,589.9297)">
      <path
         d="M 0,0 21.282,-10.967 78.69,-70.952 v -42.569 L 11.61,-45.15 Z"
         style="fill:#3c5ea9;fill-opacity:1;fill-rule:nonzero;stroke:none"
         id="path52" />
    </g>
    <g
       id="g54"
       transform="translate(235.8652,589.9297)">
      <path
         d="M 0,0 21.282,-10.967 78.69,-70.952 v -42.569 L 11.61,-45.15 Z"
         style="fill:none;stroke:#8d8d8d;stroke-width:0.75;stroke-linecap:butt;stroke-linejoin:miter;stroke-miterlimit:10;stroke-dasharray:none;stroke-opacity:1"
         id="path56" />
    </g>
    <g
       id="g58"
       transform="translate(324.875,508.6587)">
      <path
         d="M 0,0 70.304,-67.728 45.793,-88.367 0,-41.279 Z"
         style="fill:#3c5ea9;fill-opacity:1;fill-rule:nonzero;stroke:none"
         id="path60" />
    </g>
    <g
       id="g62"
       transform="translate(324.875,508.6587)">
      <path
         d="M 0,0 70.304,-67.728 45.793,-88.367 0,-41.279 Z"
         style="fill:none;stroke:#8d8d8d;stroke-width:0.75;stroke-linecap:butt;stroke-linejoin:miter;stroke-miterlimit:10;stroke-dasharray:none;stroke-opacity:1"
         id="path64" />
    </g>
    <g
       id="g66"
       transform="translate(213.2876,533.1694)">
      <path
         d="m 0,0 30.316,-15.482 49.664,-43.212 2.582,-42.574 -58.694,43.86 z"
         style="fill:#3c5ea9;fill-opacity:1;fill-rule:nonzero;stroke:none"
         id="path68" />
    </g>
    <g
       id="g70"
       transform="translate(213.2876,533.1694)">
      <path
         d="m 0,0 30.316,-15.482 49.664,-43.212 2.582,-42.574 -58.694,43.86 z"
         style="fill:none;stroke:#8d8d8d;stroke-width:0.75;stroke-linecap:butt;stroke-linejoin:miter;stroke-miterlimit:10;stroke-dasharray:none;stroke-opacity:1"
         id="path72" />
    </g>
    <g
       id="g74"
       transform="translate(301.6543,469.3135)">
      <path
         d="m 0,0 3.872,-43.217 38.054,-32.249 19.349,21.93 z"
         style="fill:#3c5ea9;fill-opacity:1;fill-rule:nonzero;stroke:none"
         id="path76" />
    </g>
    <g
       id="g78"
       transform="translate(301.6543,469.3135)">
      <path
         d="m 0,0 3.872,-43.217 38.054,-32.249 19.349,21.93 z"
         style="fill:none;stroke:#8d8d8d;stroke-width:0.75;stroke-linecap:butt;stroke-linejoin:miter;stroke-miterlimit:10;stroke-dasharray:none;stroke-opacity:1"
         id="path80" />
    </g>
    <g
       id="g82"
       transform="translate(202.3252,468.6709)">
      <path
         d="M 0,0 26.444,-3.229 79.333,-43.217 86.429,-83.853 23.22,-36.769 Z"
         style="fill:#3c5ea9;fill-opacity:1;fill-rule:nonzero;stroke:none"
         id="path84" />
    </g>
    <g
       id="g86"
       transform="translate(202.3252,468.6709)">
      <path
         d="M 0,0 26.444,-3.229 79.333,-43.217 86.429,-83.853 23.22,-36.769 Z"
         style="fill:none;stroke:#8d8d8d;stroke-width:0.75;stroke-linecap:butt;stroke-linejoin:miter;stroke-miterlimit:10;stroke-dasharray:none;stroke-opacity:1"
         id="path88" />
    </g>
    <g
       id="g90"
       transform="translate(293.2681,417.7109)">
      <path
         d="M 0,0 47.088,-32.893 45.798,-67.08 6.453,-41.278 Z"
         style="fill:#3c5ea9;fill-opacity:1;fill-rule:nonzero;stroke:none"
         id="path92" />
    </g>
    <g
       id="g94"
       transform="translate(293.2681,417.7109)">
      <path
         d="M 0,0 47.088,-32.893 45.798,-67.08 6.453,-41.278 Z"
         style="fill:none;stroke:#8d8d8d;stroke-width:0.75;stroke-linecap:butt;stroke-linejoin:miter;stroke-miterlimit:10;stroke-dasharray:none;stroke-opacity:1"
         id="path96" />
    </g>
    <g
       id="g98"
       transform="translate(351.3188,386.752)">
      <path
         d="M 0,0 56.76,52.894 52.893,9.029 -3.224,-50.308 Z"
         style="fill:#ffffff;fill-opacity:1;fill-rule:nonzero;stroke:none"
         id="path100" />
    </g>
    <g
       id="g102"
       transform="translate(351.3188,386.752)">
      <path
         d="M 0,0 56.76,52.894 52.893,9.029 -3.224,-50.308 Z"
         style="fill:none;stroke:#8d8d8d;stroke-width:0.75;stroke-linecap:butt;stroke-linejoin:miter;stroke-miterlimit:10;stroke-dasharray:none;stroke-opacity:1"
         id="path104" />
    </g>
    <g
       id="g106"
       transform="translate(417.7559,449.3174)">
      <path
         d="M 0,0 61.918,58.698 60.632,13.548 -1.934,-39.988 Z"
         style="fill:#ffffff;fill-opacity:1;fill-rule:nonzero;stroke:none"
         id="path108" />
    </g>
    <g
       id="g110"
       transform="translate(417.7559,449.3174)">
      <path
         d="M 0,0 61.918,58.698 60.632,13.548 -1.934,-39.988 Z"
         style="fill:none;stroke:#8d8d8d;stroke-width:0.75;stroke-linecap:butt;stroke-linejoin:miter;stroke-miterlimit:10;stroke-dasharray:none;stroke-opacity:1"
         id="path112" />
    </g>
    <g
       id="g114"
       transform="translate(488.0596,519.626)">
      <path
         d="M 0,0 V -43.217 L 58.051,6.448 79.338,65.789 49.665,50.955 Z"
         style="fill:#ffffff;fill-opacity:1;fill-rule:nonzero;stroke:none"
         id="path116" />
    </g>
    <g
       id="g118"
       transform="translate(488.0596,519.626)">
      <path
         d="M 0,0 V -43.217 L 58.051,6.448 79.338,65.789 49.665,50.955 Z"
         style="fill:none;stroke:#8d8d8d;stroke-width:0.75;stroke-linecap:butt;stroke-linejoin:miter;stroke-miterlimit:10;stroke-dasharray:none;stroke-opacity:1"
         id="path120" />
    </g>
    <g
       id="g122"
       transform="translate(346.8047,322.896)">
      <path
         d="m 0,0 0.647,-38.054 64.499,63.213 3.872,43.212 z"
         style="fill:#ffffff;fill-opacity:1;fill-rule:nonzero;stroke:none"
         id="path124" />
    </g>
    <g
       id="g126"
       transform="translate(346.8047,322.896)">
      <path
         d="m 0,0 0.647,-38.054 64.499,63.213 3.872,43.212 z"
         style="fill:none;stroke:#8d8d8d;stroke-width:0.75;stroke-linecap:butt;stroke-linejoin:miter;stroke-miterlimit:10;stroke-dasharray:none;stroke-opacity:1"
         id="path128" />
    </g>
    <g
       id="g130"
       transform="translate(426.7852,400.9434)">
      <path
         d="M 0,0 -5.157,-38.702 67.08,21.287 71.594,64.499 Z"
         style="fill:#ffffff;fill-opacity:1;fill-rule:nonzero;stroke:none"
         id="path132" />
    </g>
    <g
       id="g134"
       transform="translate(426.7852,400.9434)">
      <path
         d="M 0,0 -5.157,-38.702 67.08,21.287 71.594,64.499 Z"
         style="fill:none;stroke:#8d8d8d;stroke-width:0.75;stroke-linecap:butt;stroke-linejoin:miter;stroke-miterlimit:10;stroke-dasharray:none;stroke-opacity:1"
         id="path136" />
    </g>
    <g
       id="g138"
       transform="translate(507.4131,474.4756)">
      <path
         d="M 0,0 -5.162,-45.155 57.403,-2.581 86.429,58.694 50.955,39.345 Z"
         style="fill:#ffffff;fill-opacity:1;fill-rule:nonzero;stroke:none"
         id="path140" />
    </g>
    <g
       id="g142"
       transform="translate(507.4131,474.4756)">
      <path
         d="M 0,0 -5.162,-45.155 57.403,-2.581 86.429,58.694 50.955,39.345 Z"
         style="fill:none;stroke:#8d8d8d;stroke-width:0.75;stroke-linecap:butt;stroke-linejoin:miter;stroke-miterlimit:10;stroke-dasharray:none;stroke-opacity:1"
         id="path144" />
    </g>
    <g
       id="g146"
       transform="translate(518.376,425.4541)">
      <path
         d="M 0,0 44.507,31.606 83.204,41.278 43.859,-10.967 -5.806,-42.574 Z"
         style="fill:#ffffff;fill-opacity:1;fill-rule:nonzero;stroke:none"
         id="path148" />
    </g>
    <g
       id="g150"
       transform="translate(518.376,425.4541)">
      <path
         d="M 0,0 44.507,31.606 83.204,41.278 43.859,-10.967 -5.806,-42.574 Z"
         style="fill:none;stroke:#8d8d8d;stroke-width:0.75;stroke-linecap:butt;stroke-linejoin:miter;stroke-miterlimit:10;stroke-dasharray:none;stroke-opacity:1"
         id="path152" />
    </g>
    <g
       id="g154"
       transform="translate(430.0088,352.5693)">
      <path
         d="M 0,0 75.466,63.855 70.952,25.153 -6.448,-37.412 Z"
         style="fill:#ffffff;fill-opacity:1;fill-rule:nonzero;stroke:none"
         id="path156" />
    </g>
    <g
       id="g158"
       transform="translate(430.0088,352.5693)">
      <path
         d="M 0,0 75.466,63.855 70.952,25.153 -6.448,-37.412 Z"
         style="fill:none;stroke:#8d8d8d;stroke-width:0.75;stroke-linecap:butt;stroke-linejoin:miter;stroke-miterlimit:10;stroke-dasharray:none;stroke-opacity:1"
         id="path160" />
    </g>
    <g
       id="g162"
       transform="translate(206.8398,417.7109)">
      <path
         d="m 0,0 28.377,-10.32 42.574,-38.054 10.32,-42.569 -56.76,45.15 z"
         style="fill:#3c5ea9;fill-opacity:1;fill-rule:nonzero;stroke:none"
         id="path164" />
    </g>
    <g
       id="g166"
       transform="translate(206.8398,417.7109)">
      <path
         d="m 0,0 28.377,-10.32 42.574,-38.054 10.32,-42.569 -56.76,45.15 z"
         style="fill:none;stroke:#8d8d8d;stroke-width:0.75;stroke-linecap:butt;stroke-linejoin:miter;stroke-miterlimit:10;stroke-dasharray:none;stroke-opacity:1"
         id="path168" />
    </g>
    <g
       id="g170"
       transform="translate(286.8203,368.0459)">
      <path
         d="m 0,0 10.319,-40.635 38.055,-25.154 v 36.121 z"
         style="fill:#3c5ea9;fill-opacity:1;fill-rule:nonzero;stroke:none"
         id="path172" />
    </g>
    <g
       id="g174"
       transform="translate(286.8203,368.0459)">
      <path
         d="m 0,0 10.319,-40.635 38.055,-25.154 v 36.121 z"
         style="fill:none;stroke:#8d8d8d;stroke-width:0.75;stroke-linecap:butt;stroke-linejoin:miter;stroke-miterlimit:10;stroke-dasharray:none;stroke-opacity:1"
         id="path176" />
    </g>
    <g
       id="g178"
       transform="translate(344.8711,271.2979)">
      <path
         d="M 0,0 70.951,67.08 65.146,32.893 -4.515,-38.055 Z"
         style="fill:#ffffff;fill-opacity:1;fill-rule:nonzero;stroke:none"
         id="path180" />
    </g>
    <g
       id="g182"
       transform="translate(344.8711,271.2979)">
      <path
         d="M 0,0 70.951,67.08 65.146,32.893 -4.515,-38.055 Z"
         style="fill:none;stroke:#8d8d8d;stroke-width:0.75;stroke-linecap:butt;stroke-linejoin:miter;stroke-miterlimit:10;stroke-dasharray:none;stroke-opacity:1"
         id="path184" />
    </g>
    <g
       id="g186"
       transform="translate(293.2681,305.481)">
      <path
         d="M 0,0 39.993,-17.416 39.345,-53.537 9.677,-39.988 Z"
         style="fill:#3c5ea9;fill-opacity:1;fill-rule:nonzero;stroke:none"
         id="path188" />
    </g>
    <g
       id="g190"
       transform="translate(293.2681,305.481)">
      <path
         d="M 0,0 39.993,-17.416 39.345,-53.537 9.677,-39.988 Z"
         style="fill:none;stroke:#8d8d8d;stroke-width:0.75;stroke-linecap:butt;stroke-linejoin:miter;stroke-miterlimit:10;stroke-dasharray:none;stroke-opacity:1"
         id="path192" />
    </g>
    <g
       id="g194"
       transform="translate(278.4341,313.8672)">
      <path
         d="m 0,0 12.253,-43.217 -63.208,34.188 -25.154,41.278 h 30.311 z"
         style="fill:#3c5ea9;fill-opacity:1;fill-rule:nonzero;stroke:none"
         id="path196" />
    </g>
    <g
       id="g198"
       transform="translate(278.4341,313.8672)">
      <path
         d="m 0,0 12.253,-43.217 -63.208,34.188 -25.154,41.278 h 30.311 z"
         style="fill:none;stroke:#8d8d8d;stroke-width:0.75;stroke-linecap:butt;stroke-linejoin:miter;stroke-miterlimit:10;stroke-dasharray:none;stroke-opacity:1"
         id="path200" />
    </g>
    <g
       id="g202"
       transform="translate(293.916,251.3018)">
      <path
         d="m 0,0 38.054,-17.415 -1.29,-30.316 -22.577,10.32 z"
         style="fill:#3c5ea9;fill-opacity:1;fill-rule:nonzero;stroke:none"
         id="path204" />
    </g>
    <g
       id="g206"
       transform="translate(293.916,251.3018)">
      <path
         d="m 0,0 38.054,-17.415 -1.29,-30.316 -22.577,10.32 z"
         style="fill:none;stroke:#8d8d8d;stroke-width:0.75;stroke-linecap:butt;stroke-linejoin:miter;stroke-miterlimit:10;stroke-dasharray:none;stroke-opacity:1"
         id="path208" />
    </g>
    <g
       id="g210"
       transform="translate(213.9355,284.8418)">
      <path
         d="M 0,0 12.9,0.643 65.789,-25.154 81.271,-66.438 23.22,-35.474 Z"
         style="fill:#3c5ea9;fill-opacity:1;fill-rule:nonzero;stroke:none"
         id="path212" />
    </g>
    <g
       id="g214"
       transform="translate(213.9355,284.8418)">
      <path
         d="M 0,0 12.9,0.643 65.789,-25.154 81.271,-66.438 23.22,-35.474 Z"
         style="fill:none;stroke:#8d8d8d;stroke-width:0.75;stroke-linecap:butt;stroke-linejoin:miter;stroke-miterlimit:10;stroke-dasharray:none;stroke-opacity:1"
         id="path216" />
    </g>
    <g
       id="g218"
       transform="translate(339.0659,217.1191)">
      <path
         d="M 0,0 85.786,84.495 77.4,49.017 -2.581,-23.868 Z"
         style="fill:#ffffff;fill-opacity:1;fill-rule:nonzero;stroke:none"
         id="path220" />
    </g>
    <g
       id="g222"
       transform="translate(339.0659,217.1191)">
      <path
         d="M 0,0 85.786,84.495 77.4,49.017 -2.581,-23.868 Z"
         style="fill:none;stroke:#8d8d8d;stroke-width:0.75;stroke-linecap:butt;stroke-linejoin:miter;stroke-miterlimit:10;stroke-dasharray:none;stroke-opacity:1"
         id="path224" />
    </g>
    <g
       id="g226"
       transform="translate(444.2002,319.0293)">
      <path
         d="m 0,0 -14.191,-43.864 67.08,41.926 16.13,50.955 z"
         style="fill:#ffffff;fill-opacity:1;fill-rule:nonzero;stroke:none"
         id="path228" />
    </g>
    <g
       id="g230"
       transform="translate(444.2002,319.0293)">
      <path
         d="m 0,0 -14.191,-43.864 67.08,41.926 16.13,50.955 z"
         style="fill:none;stroke:#8d8d8d;stroke-width:0.75;stroke-linecap:butt;stroke-linejoin:miter;stroke-miterlimit:10;stroke-dasharray:none;stroke-opacity:1"
         id="path232" />
    </g>
    <g
       id="g234"
       transform="translate(524.8281,374.499)">
      <path
         d="M 0,0 36.117,26.444 76.752,39.345 45.15,-12.258 -8.386,-45.15 Z"
         style="fill:#ffffff;fill-opacity:1;fill-rule:nonzero;stroke:none"
         id="path236" />
    </g>
    <g
       id="g238"
       transform="translate(524.8281,374.499)">
      <path
         d="M 0,0 36.117,26.444 76.752,39.345 45.15,-12.258 -8.386,-45.15 Z"
         style="fill:none;stroke:#8d8d8d;stroke-width:0.75;stroke-linecap:butt;stroke-linejoin:miter;stroke-miterlimit:10;stroke-dasharray:none;stroke-opacity:1"
         id="path240" />
    </g>
    <g
       id="g242"
       transform="translate(522.8906,313.2241)">
      <path
         d="M 0,0 58.698,29.668 82.562,30.311 41.283,-19.997 -14.191,-43.216 Z"
         style="fill:#ffffff;fill-opacity:1;fill-rule:nonzero;stroke:none"
         id="path244" />
    </g>
    <g
       id="g246"
       transform="translate(522.8906,313.2241)">
      <path
         d="M 0,0 58.698,29.668 82.562,30.311 41.283,-19.997 -14.191,-43.216 Z"
         style="fill:none;stroke:#8d8d8d;stroke-width:0.75;stroke-linecap:butt;stroke-linejoin:miter;stroke-miterlimit:10;stroke-dasharray:none;stroke-opacity:1"
         id="path248" />
    </g>
    <g
       id="g250"
       transform="translate(509.3467,308.7051)">
      <path
         d="m 0,0 -12.9,-45.15 -67.728,-38.698 11.609,39.345 z"
         style="fill:#ffffff;fill-opacity:1;fill-rule:nonzero;stroke:none"
         id="path252" />
    </g>
    <g
       id="g254"
       transform="translate(509.3467,308.7051)">
      <path
         d="m 0,0 -12.9,-45.15 -67.728,-38.698 11.609,39.345 z"
         style="fill:none;stroke:#8d8d8d;stroke-width:0.75;stroke-linecap:butt;stroke-linejoin:miter;stroke-miterlimit:10;stroke-dasharray:none;stroke-opacity:1"
         id="path256" />
    </g>
    <g
       id="g258"
       transform="translate(336.4849,184.2217)">
      <path
         d="m 0,0 89.009,69.661 -12.9,-39.345 -78.69,-49.67 z"
         style="fill:#ffffff;fill-opacity:1;fill-rule:nonzero;stroke:none"
         id="path260" />
    </g>
    <g
       id="g262"
       transform="translate(336.4849,184.2217)">
      <path
         d="m 0,0 89.009,69.661 -12.9,-39.345 -78.69,-49.67 z"
         style="fill:none;stroke:#8d8d8d;stroke-width:0.75;stroke-linecap:butt;stroke-linejoin:miter;stroke-miterlimit:10;stroke-dasharray:none;stroke-opacity:1"
         id="path264" />
    </g>
    <g
       id="g266"
       transform="translate(330.0322,147.458)">
      <path
         d="M 0,0 90.305,59.984 73.532,23.22 -3.867,-16.772 Z"
         style="fill:#ffffff;fill-opacity:1;fill-rule:nonzero;stroke:none"
         id="path268" />
    </g>
    <g
       id="g270"
       transform="translate(330.0322,147.458)">
      <path
         d="M 0,0 90.305,59.984 73.532,23.22 -3.867,-16.772 Z"
         style="fill:none;stroke:#8d8d8d;stroke-width:0.75;stroke-linecap:butt;stroke-linejoin:miter;stroke-miterlimit:10;stroke-dasharray:none;stroke-opacity:1"
         id="path272" />
    </g>
    <g
       id="g274"
       transform="translate(438.8271,218.6211)">
      <path
         d="M 0,0 68.802,31.39 45.581,-12.901 -18.49,-37.844 Z"
         style="fill:#ffffff;fill-opacity:1;fill-rule:nonzero;stroke:none"
         id="path276" />
    </g>
    <g
       id="g278"
       transform="translate(438.8271,218.6211)">
      <path
         d="M 0,0 68.802,31.39 45.581,-12.901 -18.49,-37.844 Z"
         style="fill:none;stroke:#8d8d8d;stroke-width:0.75;stroke-linecap:butt;stroke-linejoin:miter;stroke-miterlimit:10;stroke-dasharray:none;stroke-opacity:1"
         id="path280" />
    </g>
    <g
       id="g282"
       transform="translate(520.5293,256.459)">
      <path
         d="M 0,0 -18.062,-40.42 26.656,-23.647 68.371,25.375 44.292,22.361 Z"
         style="fill:#ffffff;fill-opacity:1;fill-rule:nonzero;stroke:none"
         id="path284" />
    </g>
    <g
       id="g286"
       transform="translate(520.5293,256.459)">
      <path
         d="M 0,0 -18.062,-40.42 26.656,-23.647 68.371,25.375 44.292,22.361 Z"
         style="fill:none;stroke:#8d8d8d;stroke-width:0.75;stroke-linecap:butt;stroke-linejoin:miter;stroke-miterlimit:10;stroke-dasharray:none;stroke-opacity:1"
         id="path288" />
    </g>
    <g
       id="g290"
       transform="translate(509.7783,206.5781)">
      <path
         d="M 0,0 -16.341,-37.838 23.221,-22.361 72.237,19.354 41.71,16.772 Z"
         style="fill:#ffffff;fill-opacity:1;fill-rule:nonzero;stroke:none"
         id="path292" />
    </g>
    <g
       id="g294"
       transform="translate(509.7783,206.5781)">
      <path
         d="M 0,0 -16.341,-37.838 23.221,-22.361 72.237,19.354 41.71,16.772 Z"
         style="fill:none;stroke:#8d8d8d;stroke-width:0.75;stroke-linecap:butt;stroke-linejoin:miter;stroke-miterlimit:10;stroke-dasharray:none;stroke-opacity:1"
         id="path296" />
    </g>
    <g
       id="g298"
       transform="translate(494.2969,200.1309)">
      <path
         d="m 0,0 -22.357,-39.993 -68.802,-28.378 20.639,38.27 z"
         style="fill:#ffffff;fill-opacity:1;fill-rule:nonzero;stroke:none"
         id="path300" />
    </g>
    <g
       id="g302"
       transform="translate(494.2969,200.1309)">
      <path
         d="m 0,0 -22.357,-39.993 -68.802,-28.378 20.639,38.27 z"
         style="fill:none;stroke:#8d8d8d;stroke-width:0.75;stroke-linecap:butt;stroke-linejoin:miter;stroke-miterlimit:10;stroke-dasharray:none;stroke-opacity:1"
         id="path304" />
    </g>
    <g
       id="g306"
       transform="translate(408.2949,160.5703)">
      <path
         d="m 0,0 -21.498,-32.682 -76.541,-35.689 9.889,24.511 z"
         style="fill:#ffffff;fill-opacity:1;fill-rule:nonzero;stroke:none"
         id="path308" />
    </g>
    <g
       id="g310"
       transform="translate(408.2949,160.5703)">
      <path
         d="m 0,0 -21.498,-32.682 -76.541,-35.689 9.889,24.511 z"
         style="fill:none;stroke:#8d8d8d;stroke-width:0.75;stroke-linecap:butt;stroke-linejoin:miter;stroke-miterlimit:10;stroke-dasharray:none;stroke-opacity:1"
         id="path312" />
    </g>
    <g
       id="g314"
       transform="translate(223.396,230.2305)">
      <path
         d="M 0,0 30.532,-3.013 64.931,-19.78 78.263,-58.051 27.951,-36.553 Z"
         style="fill:#3c5ea9;fill-opacity:1;fill-rule:nonzero;stroke:none"
         id="path316" />
    </g>
    <g
       id="g318"
       transform="translate(223.396,230.2305)">
      <path
         d="M 0,0 30.532,-3.013 64.931,-19.78 78.263,-58.051 27.951,-36.553 Z"
         style="fill:none;stroke:#8d8d8d;stroke-width:0.75;stroke-linecap:butt;stroke-linejoin:miter;stroke-miterlimit:10;stroke-dasharray:none;stroke-opacity:1"
         id="path320" />
    </g>
    <g
       id="g322"
       transform="translate(308.9658,197.9814)">
      <path
         d="M 0,0 17.199,-7.312 V -33.54 l -8.17,3.867 z"
         style="fill:#3c5ea9;fill-opacity:1;fill-rule:nonzero;stroke:none"
         id="path324" />
    </g>
    <g
       id="g326"
       transform="translate(308.9658,197.9814)">
      <path
         d="M 0,0 17.199,-7.312 V -33.54 l -8.17,3.867 z"
         style="fill:none;stroke:#8d8d8d;stroke-width:0.75;stroke-linecap:butt;stroke-linejoin:miter;stroke-miterlimit:10;stroke-dasharray:none;stroke-opacity:1"
         id="path328" />
    </g>
    <g
       id="g330"
       transform="translate(324.0156,151.9678)">
      <path
         d="m 0,0 -10.319,-25.37 -36.548,12.901 -23.653,31.818 23.221,1.722 z"
         style="fill:#3c5ea9;fill-opacity:1;fill-rule:nonzero;stroke:none"
         id="path332" />
    </g>
    <g
       id="g334"
       transform="translate(324.0156,151.9678)">
      <path
         d="m 0,0 -10.319,-25.37 -36.548,12.901 -23.653,31.818 23.221,1.722 z"
         style="fill:none;stroke:#8d8d8d;stroke-width:0.75;stroke-linecap:butt;stroke-linejoin:miter;stroke-miterlimit:10;stroke-dasharray:none;stroke-opacity:1"
         id="path336" />
    </g>
    <g
       id="g338"
       transform="translate(273.7036,119.7188)">
      <path
         d="M 0,0 19.354,0.432 36.984,-5.162 30.105,-25.37 9.034,-14.191 Z"
         style="fill:#3c5ea9;fill-opacity:1;fill-rule:nonzero;stroke:none"
         id="path340" />
    </g>
    <g
       id="g342"
       transform="translate(273.7036,119.7188)">
      <path
         d="M 0,0 19.354,0.432 36.984,-5.162 30.105,-25.37 9.034,-14.191 Z"
         style="fill:none;stroke:#8d8d8d;stroke-width:0.75;stroke-linecap:butt;stroke-linejoin:miter;stroke-miterlimit:10;stroke-dasharray:none;stroke-opacity:1"
         id="path344" />
    </g>
    <g
       id="g346"
       transform="translate(241.4541,25.9404)">
      <path
         d="M 0,0 72.242,59.342 153.513,97.185 125.131,57.624 Z"
         style="fill:#ffffff;fill-opacity:1;fill-rule:nonzero;stroke:none"
         id="path348" />
    </g>
    <g
       id="g350"
       transform="translate(241.4541,25.9404)">
      <path
         d="M 0,0 72.242,59.342 153.513,97.185 125.131,57.624 Z"
         style="fill:none;stroke:#8d8d8d;stroke-width:0.75;stroke-linecap:butt;stroke-linejoin:miter;stroke-miterlimit:10;stroke-dasharray:none;stroke-opacity:1"
         id="path352" />
    </g>
    <g
       id="g354"
       transform="translate(412.5986,130.0049)">
      <path
         d="M 0,0 -23.221,-30.531 49.448,-7.738 68.797,26.66 Z"
         style="fill:#ffffff;fill-opacity:1;fill-rule:nonzero;stroke:none"
         id="path356" />
    </g>
    <g
       id="g358"
       transform="translate(412.5986,130.0049)">
      <path
         d="M 0,0 -23.221,-30.531 49.448,-7.738 68.797,26.66 Z"
         style="fill:none;stroke:#8d8d8d;stroke-width:0.75;stroke-linecap:butt;stroke-linejoin:miter;stroke-miterlimit:10;stroke-dasharray:none;stroke-opacity:1"
         id="path360" />
    </g>
    <g
       id="g362"
       transform="translate(496.0186,158.8145)">
      <path
         d="M 0,0 -18.062,-32.249 27.52,-20.639 53.321,11.179 28.81,11.61 Z"
         style="fill:#ffffff;fill-opacity:1;fill-rule:nonzero;stroke:none"
         id="path364" />
    </g>
    <g
       id="g366"
       transform="translate(496.0186,158.8145)">
      <path
         d="M 0,0 -18.062,-32.249 27.52,-20.639 53.321,11.179 28.81,11.61 Z"
         style="fill:none;stroke:#8d8d8d;stroke-width:0.75;stroke-linecap:butt;stroke-linejoin:miter;stroke-miterlimit:10;stroke-dasharray:none;stroke-opacity:1"
         id="path368" />
    </g>
    <g
       id="g370"
       transform="translate(465.0557,106.7852)">
      <path
         d="M 0,0 28.382,8.602 58.909,9.456 29.241,-20.64 -23.647,-29.241 Z"
         style="fill:#3c5ea9;fill-opacity:1;fill-rule:nonzero;stroke:none"
         id="path372" />
    </g>
    <g
       id="g374"
       transform="translate(465.0557,106.7852)">
      <path
         d="M 0,0 28.382,8.602 58.909,9.456 29.241,-20.64 -23.647,-29.241 Z"
         style="fill:none;stroke:#8d8d8d;stroke-width:0.75;stroke-linecap:butt;stroke-linejoin:miter;stroke-miterlimit:10;stroke-dasharray:none;stroke-opacity:1"
         id="path376" />
    </g>
    <g
       id="g378"
       transform="translate(453.877,108.0752)">
      <path
         d="m 0,0 -21.503,-28.382 -46.009,3.871 36.121,21.067 z"
         style="fill:#3c5ea9;fill-opacity:1;fill-rule:nonzero;stroke:none"
         id="path380" />
    </g>
    <g
       id="g382"
       transform="translate(453.877,108.0752)">
      <path
         d="m 0,0 -21.503,-28.382 -46.009,3.871 36.121,21.067 z"
         style="fill:none;stroke:#8d8d8d;stroke-width:0.75;stroke-linecap:butt;stroke-linejoin:miter;stroke-miterlimit:10;stroke-dasharray:none;stroke-opacity:1"
         id="path384" />
    </g>
    <g
       id="g386"
       transform="translate(453.0186,72.3818)">
      <path
         d="M 0,0 46.009,3.871 86.428,-31.818 30.1,-19.776 Z"
         style="fill:#3c5ea9;fill-opacity:1;fill-rule:nonzero;stroke:none"
         id="path388" />
    </g>
    <g
       id="g390"
       transform="translate(453.0186,72.3818)">
      <path
         d="M 0,0 46.009,3.871 86.428,-31.818 30.1,-19.776 Z"
         style="fill:none;stroke:#8d8d8d;stroke-width:0.75;stroke-linecap:butt;stroke-linejoin:miter;stroke-miterlimit:10;stroke-dasharray:none;stroke-opacity:1"
         id="path392" />
    </g>
  </g>
</svg>
